<?xml version="1.0" encoding="utf-8"?>
<!-- Generator: Adobe Illustrator 19.0.0, SVG Export Plug-In . SVG Version: 6.00 Build 0)  -->
<svg version="1.0" id="Laag_1" xmlns="http://www.w3.org/2000/svg" xmlns:xlink="http://www.w3.org/1999/xlink" x="0px" y="0px"
	 viewBox="0 0 226.8 226.8" style="enable-background:new 0 0 226.8 226.8;" xml:space="preserve">
<style type="text/css">
	.st0{fill:#6B4795;}
	.st1{fill:#6269AE;}
	.st2{fill:#658AC7;}
</style>
<path id="XMLID_101_" class="st0" d="M193.3,162.4l-64.8,32.4c-9.5,4.8-20.7,4.8-30.3,0l-64.8-32.4c-3.7-1.9-3.7-7.2,0-9.1
	l26.9-13.4c1.6-0.8,3.5-0.8,5.1,0l32.8,16.4c9.5,4.8,20.7,4.8,30.3,0l32.8-16.4c1.6-0.8,3.5-0.8,5.1,0l26.9,13.4
	C197.1,155.2,197.1,160.6,193.3,162.4z"/>
<path id="XMLID_103_" class="st1" d="M193.3,117.9l-29.4,14.7l-35.4,17.7c-9.5,4.8-20.7,4.8-30.3,0l-35.4-17.7l-29.4-14.7
	c-3.7-1.9-3.7-7.2,0-9.1l28.2-14.1c0.8-0.4,1.7-0.4,2.5,0l34.1,17c9.5,4.8,20.7,4.8,30.3,0l34.1-17c0.8-0.4,1.7-0.4,2.5,0l28.2,14.1
	C197.1,110.7,197.1,116.1,193.3,117.9z"/>
<path id="XMLID_100_" class="st2" d="M193.3,73.4l-29.4,14.7l-35.4,17.7c-9.5,4.8-20.7,4.8-30.3,0L62.9,88.1L33.5,73.4
	c-3.7-1.9-3.7-7.2,0-9.1l64.8-32.4c9.5-4.8,20.7-4.8,30.3,0l64.8,32.4C197.1,66.2,197.1,71.5,193.3,73.4z"/>
<path id="XMLID_229_" class="st0" d="M113.4,0"/>
<path id="XMLID_172_" class="st0" d="M193.3,162.4l-64.8,32.4c-9.5,4.8-20.7,4.8-30.3,0l-64.8-32.4c-3.7-1.9-3.7-7.2,0-9.1
	l26.9-13.4c1.6-0.8,3.5-0.8,5.1,0l32.8,16.4c9.5,4.8,20.7,4.8,30.3,0l32.8-16.4c1.6-0.8,3.5-0.8,5.1,0l26.9,13.4
	C197.1,155.2,197.1,160.6,193.3,162.4z"/>
<path id="XMLID_171_" class="st1" d="M193.3,117.9l-29.4,14.7l-35.4,17.7c-9.5,4.8-20.7,4.8-30.3,0l-35.4-17.7l-29.4-14.7
	c-3.7-1.9-3.7-7.2,0-9.1l28.2-14.1c0.8-0.4,1.7-0.4,2.5,0l34.1,17c9.5,4.8,20.7,4.8,30.3,0l34.1-17c0.8-0.4,1.7-0.4,2.5,0l28.2,14.1
	C197.1,110.7,197.1,116.1,193.3,117.9z"/>
<path id="XMLID_170_" class="st2" d="M193.3,73.4l-29.4,14.7l-35.4,17.7c-9.5,4.8-20.7,4.8-30.3,0L62.9,88.1L33.5,73.4
	c-3.7-1.9-3.7-7.2,0-9.1l64.8-32.4c9.5-4.8,20.7-4.8,30.3,0l64.8,32.4C197.1,66.2,197.1,71.5,193.3,73.4z"/>
<path id="XMLID_167_" class="st0" d="M113.4,0"/>
<g id="XMLID_25_">
</g>
<g id="XMLID_26_">
</g>
<g id="XMLID_30_">
</g>
<g id="XMLID_31_">
</g>
<g id="XMLID_138_">
</g>
<g id="XMLID_139_">
</g>
</svg>
